<svg xmlns="http://www.w3.org/2000/svg" version="1.1" xmlns:xlink="http://www.w3.org/1999/xlink" xmlns:svgjs="http://svgjs.dev/svgjs" width="1920" height="1080" preserveAspectRatio="none" viewBox="0 0 1920 1080">
    <g mask="url(&quot;#SvgjsMask1101&quot;)" fill="none">
        <path d="M85.501,479.119C133.871,478.075,168.096,437.2,191.524,394.87C214.032,354.202,225.042,306.699,203.812,265.35C180.779,220.491,135.881,186.197,85.501,188.375C37.815,190.437,6.382,232.884,-16.325,274.868C-37.634,314.266,-48.741,359.537,-28.756,399.624C-6.569,444.128,35.785,480.192,85.501,479.119" fill="rgba(50, 50, 50, 0.5019607843137255)" class="triangle-float2"></path>
        <path d="M390.7145704694167 534.6000481238516L156.4516780362014 410.04025872881266 31.89188864116244 644.3031511620279 266.15478107437775 768.8629405570668z" fill="rgba(50, 50, 50, 0.5019607843137255)" class="triangle-float1"></path>
        <path d="M338.38506436270563 724.790662747988L493.63840065251657 784.386834868905 397.98123648362264 569.5373264581771z" fill="rgba(50, 50, 50, 0.5019607843137255)" class="triangle-float1"></path>
        <path d="M1335.179884640078 852.1146801530673L1222.787859985432 559.3234457664535 1042.3886502534642 964.506704807713z" fill="rgba(50, 50, 50, 0.5019607843137255)" class="triangle-float1"></path>
        <path d="M980.0894942726605 130.680210472428L1188.0447092300642 287.38570494357646 1136.794988743809-77.27500448497554z" fill="rgba(50, 50, 50, 0.5019607843137255)" class="triangle-float1"></path>
        <path d="M722.814569798575 962.6549819614947L776.0207015837989 1237.776392319664 963.6674780807482 1080.3220513694682z" fill="rgba(50, 50, 50, 0.5019607843137255)" class="triangle-float3"></path>
        <path d="M679.8042215824905 710.015362494474L600.9759326977766 452.17964738528315 343.14021758858576 531.0079362699971 421.9685064732997 788.8436513791879z" fill="rgba(50, 50, 50, 0.5019607843137255)" class="triangle-float3"></path>
        <path d="M356.194,335.205C405.956,334.76,442.847,295.917,469.113,253.649C497.435,208.074,524.531,153.217,498.414,106.344C471.876,58.715,410.677,48.91,356.194,50.99C305.939,52.908,256.483,72.816,231.612,116.528C206.982,159.818,215.067,212.425,239.721,255.701C264.661,299.477,305.814,335.655,356.194,335.205" fill="rgba(50, 50, 50, 0.5019607843137255)" class="triangle-float3"></path>
        <path d="M878.9785095993925 282.21460180699074L1030.9365292673917 366.44630754980045 963.2102153422022 130.25658213899158z" fill="rgba(50, 50, 50, 0.5019607843137255)" class="triangle-float3"></path>
        <path d="M1057.0368874116855 472.2316012550298L930.2621063970923 401.9591926426981 888.2408839858915 627.2575684707538z" fill="rgba(50, 50, 50, 0.5019607843137255)" class="triangle-float2"></path>
        <path d="M1584.169,1508.658C1690.18,1504.253,1761.489,1413.795,1815.58,1322.517C1871.167,1228.715,1926.156,1117.366,1872.194,1022.621C1817.903,927.299,1693.86,914.868,1584.169,916.215C1477.574,917.524,1364.708,939.189,1308.146,1029.549C1248.66,1124.58,1260.899,1246.095,1316.866,1343.24C1372.929,1440.552,1471.96,1513.321,1584.169,1508.658" fill="rgba(50, 50, 50, 0.5019607843137255)" class="triangle-float2"></path>
        <path d="M657.0999043966635 651.9485167978994L498.34534587828705 905.4709613012753 759.470564162253 919.1559541063374z" fill="rgba(50, 50, 50, 0.5019607843137255)" class="triangle-float3"></path>
        <path d="M1874.510520101772-112.45318151537822L1681.5251389478344-98.95832905958011 1695.0199914036325 94.02705209435763 1888.0053725575701 80.53219963855952z" fill="rgba(50, 50, 50, 0.5019607843137255)" class="triangle-float3"></path>
        <path d="M1608.0481020059976 281.153353824298L1514.2698266205887 491.78280893324336 1724.8992817295339 585.5610843186524 1818.677557114943 374.93162920970707z" fill="rgba(50, 50, 50, 0.5019607843137255)" class="triangle-float1"></path>
    </g>
    <defs>
        <mask id="SvgjsMask1101">
            <rect width="1920" height="1080" fill="#ffffff"></rect>
        </mask>
        <style>
            @keyframes float1 {
                    0%{transform: translate(0, 0)}
                    50%{transform: translate(-10px, 0)}
                    100%{transform: translate(0, 0)}
                }

                .triangle-float1 {
                    animation: float1 5s infinite;
                }

                @keyframes float2 {
                    0%{transform: translate(0, 0)}
                    50%{transform: translate(-5px, -5px)}
                    100%{transform: translate(0, 0)}
                }

                .triangle-float2 {
                    animation: float2 4s infinite;
                }

                @keyframes float3 {
                    0%{transform: translate(0, 0)}
                    50%{transform: translate(0, -10px)}
                    100%{transform: translate(0, 0)}
                }

                .triangle-float3 {
                    animation: float3 6s infinite;
                }
        </style>
    </defs>
</svg>