<svg id="visual" viewBox="0 0 1920 1080" width="1920" height="1080" xmlns="http://www.w3.org/2000/svg" xmlns:xlink="http://www.w3.org/1999/xlink" version="1.1"><path d="M0 195L29.2 195C58.3 195 116.7 195 174.8 204C233 213 291 231 349.2 247.3C407.3 263.7 465.7 278.3 523.8 256.8C582 235.3 640 177.7 698.2 170.3C756.3 163 814.7 206 872.8 209.5C931 213 989 177 1047.2 177C1105.3 177 1163.7 213 1221.8 229.3C1280 245.7 1338 242.3 1396.2 240.7C1454.3 239 1512.7 239 1570.8 235.3C1629 231.7 1687 224.3 1745.2 202.7C1803.3 181 1861.7 145 1890.8 127L1920 109L1920 0L1890.8 0C1861.7 0 1803.3 0 1745.2 0C1687 0 1629 0 1570.8 0C1512.7 0 1454.3 0 1396.2 0C1338 0 1280 0 1221.8 0C1163.7 0 1105.3 0 1047.2 0C989 0 931 0 872.8 0C814.7 0 756.3 0 698.2 0C640 0 582 0 523.8 0C465.7 0 407.3 0 349.2 0C291 0 233 0 174.8 0C116.7 0 58.3 0 29.2 0L0 0Z" fill="#323232"></path><path d="M0 422L29.2 414.8C58.3 407.7 116.7 393.3 174.8 395.2C233 397 291 415 349.2 420.3C407.3 425.7 465.7 418.3 523.8 395C582 371.7 640 332.3 698.2 341.3C756.3 350.3 814.7 407.7 872.8 402.2C931 396.7 989 328.3 1047.2 319.3C1105.3 310.3 1163.7 360.7 1221.8 385.8C1280 411 1338 411 1396.2 407.5C1454.3 404 1512.7 397 1570.8 393.5C1629 390 1687 390 1745.2 377.3C1803.3 364.7 1861.7 339.3 1890.8 326.7L1920 314L1920 107L1890.8 125C1861.7 143 1803.3 179 1745.2 200.7C1687 222.3 1629 229.7 1570.8 233.3C1512.7 237 1454.3 237 1396.2 238.7C1338 240.3 1280 243.7 1221.8 227.3C1163.7 211 1105.3 175 1047.2 175C989 175 931 211 872.8 207.5C814.7 204 756.3 161 698.2 168.3C640 175.7 582 233.3 523.8 254.8C465.7 276.3 407.3 261.7 349.2 245.3C291 229 233 211 174.8 202C116.7 193 58.3 193 29.2 193L0 193Z" fill="#2c2c2c"></path><path d="M0 541L29.2 526.7C58.3 512.3 116.7 483.7 174.8 485.5C233 487.3 291 519.7 349.2 525C407.3 530.3 465.7 508.7 523.8 481.7C582 454.7 640 422.3 698.2 435C756.3 447.7 814.7 505.3 872.8 512.5C931 519.7 989 476.3 1047.2 465.5C1105.3 454.7 1163.7 476.3 1221.8 494.3C1280 512.3 1338 526.7 1396.2 539.2C1454.3 551.7 1512.7 562.3 1570.8 564.2C1629 566 1687 559 1745.2 544.7C1803.3 530.3 1861.7 508.7 1890.8 497.8L1920 487L1920 312L1890.8 324.7C1861.7 337.3 1803.3 362.7 1745.2 375.3C1687 388 1629 388 1570.8 391.5C1512.7 395 1454.3 402 1396.2 405.5C1338 409 1280 409 1221.8 383.8C1163.7 358.7 1105.3 308.3 1047.2 317.3C989 326.3 931 394.7 872.8 400.2C814.7 405.7 756.3 348.3 698.2 339.3C640 330.3 582 369.7 523.8 393C465.7 416.3 407.3 423.7 349.2 418.3C291 413 233 395 174.8 393.2C116.7 391.3 58.3 405.7 29.2 412.8L0 420Z" fill="#262626"></path><path d="M0 800L29.2 794.7C58.3 789.3 116.7 778.7 174.8 769.7C233 760.7 291 753.3 349.2 773.2C407.3 793 465.7 840 523.8 825.7C582 811.3 640 735.7 698.2 715.8C756.3 696 814.7 732 872.8 730.2C931 728.3 989 688.7 1047.2 695.8C1105.3 703 1163.7 757 1221.8 767.8C1280 778.7 1338 746.3 1396.2 769.7C1454.3 793 1512.7 872 1570.8 870.2C1629 868.3 1687 785.7 1745.2 775C1803.3 764.3 1861.7 825.7 1890.8 856.3L1920 887L1920 485L1890.8 495.8C1861.7 506.7 1803.3 528.3 1745.2 542.7C1687 557 1629 564 1570.8 562.2C1512.7 560.3 1454.3 549.7 1396.2 537.2C1338 524.7 1280 510.3 1221.8 492.3C1163.7 474.3 1105.3 452.7 1047.2 463.5C989 474.3 931 517.7 872.8 510.5C814.7 503.3 756.3 445.7 698.2 433C640 420.3 582 452.7 523.8 479.7C465.7 506.7 407.3 528.3 349.2 523C291 517.7 233 485.3 174.8 483.5C116.7 481.7 58.3 510.3 29.2 524.7L0 539Z" fill="#202020"></path><path d="M0 1081L29.2 1081C58.3 1081 116.7 1081 174.8 1081C233 1081 291 1081 349.2 1081C407.3 1081 465.7 1081 523.8 1081C582 1081 640 1081 698.2 1081C756.3 1081 814.7 1081 872.8 1081C931 1081 989 1081 1047.2 1081C1105.3 1081 1163.7 1081 1221.8 1081C1280 1081 1338 1081 1396.2 1081C1454.3 1081 1512.7 1081 1570.8 1081C1629 1081 1687 1081 1745.2 1081C1803.3 1081 1861.7 1081 1890.8 1081L1920 1081L1920 885L1890.8 854.3C1861.7 823.7 1803.3 762.3 1745.2 773C1687 783.7 1629 866.3 1570.8 868.2C1512.7 870 1454.3 791 1396.2 767.7C1338 744.3 1280 776.7 1221.8 765.8C1163.7 755 1105.3 701 1047.2 693.8C989 686.7 931 726.3 872.8 728.2C814.7 730 756.3 694 698.2 713.8C640 733.7 582 809.3 523.8 823.7C465.7 838 407.3 791 349.2 771.2C291 751.3 233 758.7 174.8 767.7C116.7 776.7 58.3 787.3 29.2 792.7L0 798Z" fill="#1b1b1b"></path></svg>